Coordinates
version=1
nRows=19
nColumns=36
inDegrees=yes

Units are S.I. units (second, meters, Newtons, ...)
If the header above contains a line with 'inDegrees', this indicates whether rotational values are in degrees (yes) or radians (no).

endheader
time	pelvis_tilt	pelvis_list	pelvis_rotation	pelvis_tx	pelvis_ty	pelvis_tz	hip_flexion_r	hip_adduction_r	hip_rotation_r	knee_angle_r	knee_angle_r_beta	ankle_angle_r	subtalar_angle_r	mtp_angle_r	hip_flexion_l	hip_adduction_l	hip_rotation_l	knee_angle_l	knee_angle_l_beta	ankle_angle_l	subtalar_angle_l	mtp_angle_l	lumbar_extension	lumbar_bending	lumbar_rotation	arm_flex_r	arm_add_r	arm_rot_r	elbow_flex_r	pro_sup_r	arm_flex_l	arm_add_l	arm_rot_l	elbow_flex_l	pro_sup_l
      0.98333330	    -24.82166439	      0.69118475	     -2.78437852	     -0.72219011	      1.12161171	     -0.05965749	     40.54036653	      1.37745525	      2.87801572	     60.53915355	      1.05660756	     31.03644165	     -5.18614249	     -7.49999987	     36.54843546	      2.89945803	     10.68809310	     57.04792948	      0.99567420	     32.99979534	    -15.22742323	     -7.49999987	     -9.35428732	      1.07947662	      3.70399821	     52.06625343	    -26.71153872	     19.46603806	     71.16598430	     78.98704494	     62.31531284	    -12.63704430	     26.92532265	     73.65002396	     72.92221799
      0.98750000	    -24.21762614	      0.61045712	     -2.72435635	     -0.71365043	      1.12514521	     -0.05948846	     38.82598516	      1.21522948	      2.51856293	     59.41374408	      1.03696546	     30.26082874	     -5.24806000	     -7.49999987	     35.14707677	      2.81986445	     10.64558750	     56.43019742	      0.98489274	     32.25391593	    -14.83268989	     -7.49999987	     -9.01422863	      1.33529960	      3.86973732	     52.61684280	    -26.54143215	     19.62156435	     71.56565395	     79.10251669	     62.38872283	    -12.18027352	     26.84161285	     73.68100922	     72.93491119
      0.99166670	    -23.65256562	      0.64908762	     -2.56213208	     -0.70666647	      1.12615963	     -0.05871748	     37.20346325	      0.92809382	      2.25517314	     58.64752400	      1.02359239	     29.98607587	     -4.85267097	     -7.49999987	     34.02287185	      2.82388263	     10.50453211	     56.20019360	      0.98087842	     31.34516908	    -14.77656443	     -7.49999987	     -8.76364482	      1.36093680	      3.90225612	     53.11452524	    -26.41459723	     19.81169117	     72.39028590	     77.80455462	     62.73338892	    -12.22863447	     27.05665275	     74.01649954	     71.87690795
      0.99583330	    -23.20212042	      0.62479399	     -2.31926070	     -0.70092266	      1.12898616	     -0.05748727	     35.91002651	      0.74413428	      2.07912347	     57.98824692	      1.01208584	     29.52126856	     -4.92055763	     -7.49999987	     33.19664171	      2.73684036	     10.44308717	     56.31023195	      0.98279895	     30.31822744	    -14.68591857	     -7.49999987	     -8.47158170	      1.39521411	      3.71059797	     53.60528803	    -26.26646571	     19.89234945	     73.18194454	     76.92944557	     63.36651678	    -12.57235521	     27.58726818	     74.12784814	     71.11881374
      1.00000000	    -22.89141281	      0.63181591	     -2.35863851	     -0.69135455	      1.13631139	     -0.05844999	     34.53188590	      0.56332419	      1.73343917	     56.68785742	      0.98938976	     28.79387913	     -4.68972942	     -7.49999987	     32.14072182	      2.66460744	     10.35590156	     55.94469800	      0.97641918	     29.04611639	    -14.43983178	     -7.49999987	     -7.83972394	      1.42722055	      3.66291834	     53.68385758	    -25.95795306	     19.83338627	     73.78014871	     77.05494554	     63.20150553	    -13.06057688	     27.75259115	     74.04035292	     71.15465958
      1.00416670	    -22.29455094	      0.56321429	     -2.34007433	     -0.68683789	      1.14049169	     -0.05731395	     33.06622288	      0.49570292	      1.48761888	     55.60817367	      0.97054572	     28.13915574	     -4.49477886	     -7.49999987	     31.06972096	      2.49524205	     10.14253917	     55.56721689	      0.96983089	     27.81704553	    -14.71301714	     -7.49999987	     -7.97880616	      1.52602284	      3.34726622	     54.17219713	    -25.53507214	     19.47955379	     74.76483803	     76.35517846	     63.73881513	    -14.04760762	     28.06131074	     74.34347782	     70.59866985
      1.00833330	    -21.70691140	      0.67689097	     -2.36194273	     -0.68155436	      1.14099318	     -0.05775597	     31.73471797	      0.16348340	      1.29710539	     54.85828878	      0.95745776	     27.56611425	     -3.65311173	     -7.49999987	     30.27773546	      2.53397252	      9.79246025	     55.68296080	      0.97185100	     26.39739771	    -14.94341999	     -7.49999987	     -8.18950995	      1.38685745	      3.09106155	     55.34850566	    -25.57704718	     19.67767175	     75.53928803	     75.89824119	     64.75104851	    -15.28582663	     28.86951311	     74.88131200	     70.09495911
      1.01250000	    -21.55326525	      0.77754989	     -2.31091862	     -0.67500562	      1.14246216	     -0.05651403	     30.89412367	     -0.10123093	      0.94945116	     54.37716238	      0.94906052	     27.52348099	     -3.13517415	     -7.49999987	     30.05212250	      2.45651935	      9.47584886	     56.08934224	      0.97894370	     25.60950269	    -14.47005011	     -7.49999987	     -7.75885372	      1.15892767	      2.71810705	     55.95052585	    -25.51329050	     19.80611813	     76.33711029	     76.47339846	     65.54013099	    -16.50290885	     29.48238554	     75.24938827	     70.21271863
      1.01666670	    -21.45424948	      0.85538541	     -2.17874357	     -0.66949806	      1.14274883	     -0.05545393	     29.95494297	     -0.43367003	      0.72783579	     53.66317261	      0.93659905	     27.75528682	     -2.48145740	     -7.49999987	     30.07938456	      2.36110972	      9.22414793	     56.70564275	      0.98970017	     24.73154599	    -14.05140295	     -7.49999987	     -6.96303156	      0.88858743	      2.33963066	     56.66912519	    -25.50304321	     19.87746692	     76.64394536	     75.92009411	     66.29594871	    -17.29065514	     29.74301666	     75.05066151	     69.70024669
      1.02083330	    -21.16310108	      0.99583169	     -2.05790875	     -0.66420520	      1.14582848	     -0.05508405	     28.90429853	     -0.79260150	      0.31738007	     52.96210832	      0.92436317	     28.23192747	     -1.36815895	     -7.49999987	     30.04025140	      2.26387596	      8.74442035	     57.45964382	      1.00285997	     23.16551092	    -13.85240275	     -7.49999987	     -6.65391507	      0.53776672	      1.89574298	     57.77115426	    -25.47006314	     20.48894787	     76.74705594	     76.54572109	     67.83835299	    -18.44390459	     30.98993822	     74.89026557	     69.76593650
      1.02500000	    -21.19954495	      1.08556645	     -2.11750219	     -0.65878479	      1.14565294	     -0.05407585	     28.40360522	     -0.97345334	      0.12835632	     52.62017992	      0.91839539	     27.90172722	     -0.91853415	     -7.49999987	     30.34128382	      2.01523139	      8.22237493	     58.32411592	      1.01794786	     21.85458963	    -13.31702214	     -7.49999987	     -5.98220860	      0.20815304	      1.51525064	     58.68792192	    -25.39313151	     20.92415265	     77.18875925	     76.76840422	     69.24010078	    -19.08151663	     31.10208550	     74.49051519	     69.74334349
      1.02916670	    -21.21426726	      1.12838461	     -2.07959893	     -0.65271523	      1.14995922	     -0.05253133	     27.65345963	     -1.10617986	     -0.17391765	     51.69353193	      0.90222233	     27.50142520	     -0.43362285	     -7.49999987	     30.56812293	      1.70429745	      7.70812882	     58.90629432	      1.02810879	     20.10601855	    -12.80633242	     -7.49999987	     -5.30645733	     -0.10019983	      1.12643354	     59.49041256	    -25.54995679	     21.62659252	     77.48616222	     76.98227091	     70.52675948	    -19.73389895	     31.51493010	     74.08717532	     69.71526722
      1.03333330	    -20.92132349	      1.22578033	     -1.77996836	     -0.64899337	      1.15588838	     -0.05024426	     26.48716911	     -1.31131453	     -0.59224161	     50.58820360	      0.88293072	     26.69139478	      0.01814802	     -7.49999987	     30.46326474	      1.53367767	      7.53663147	     59.07244078	      1.03100859	     17.96460455	    -12.89486741	     -7.49999987	     -5.13494109	     -0.56331873	      0.62013726	     60.87602600	    -25.88037682	     23.76786028	     76.93383037	     77.75337064	     72.64913609	    -20.83910331	     33.62155583	     73.20757244	     69.57882709
      1.03750000	    -20.67916487	      1.19988869	     -1.87159689	     -0.64052286	      1.16017108	     -0.04788596	     25.25900462	     -1.22154950	     -0.69645297	     49.31998453	      0.86079612	     25.40914994	      0.31491010	     -7.49999987	     30.04763109	      0.97049364	      7.02716496	     59.18103996	      1.03290400	     16.22163835	    -12.01535279	     -7.49999987	     -4.75000125	     -0.94006820	      0.40733662	     61.51321547	    -25.80435615	     24.40160196	     76.60669608	     78.05789663	     73.60456788	    -21.59104314	     33.93137732	     72.91603748	     69.41624396
      1.04166670	    -20.23029107	      1.23560041	     -1.86665423	     -0.63375090	      1.16537087	     -0.04893837	     23.87696522	     -1.34928383	     -0.82546121	     48.07199679	      0.83901462	     24.03763317	      0.59164653	     -7.49999987	     29.56557263	      0.68228496	      6.37921150	     59.02134075	      1.03011673	     14.05062554	    -11.80346027	     -7.49999987	     -4.74981917	     -1.20467687	     -0.08420242	     62.48599676	    -25.61152201	     25.52156495	     76.11774556	     78.55817533	     74.65195163	    -22.29717307	     34.44385646	     72.57939766	     69.11711239
      1.04583330	    -19.93253407	      1.29398273	     -1.90455608	     -0.62515185	      1.17134231	     -0.04724630	     22.41714509	     -1.44916635	     -0.99966084	     46.49784233	      0.81154044	     22.32179764	      0.84042781	     -7.49999987	     28.93489025	      0.33806579	      5.72331454	     58.78624365	      1.02601351	     11.71068631	    -11.34113796	     -7.49999987	     -4.55214402	     -1.48645425	     -0.31231217	     63.08644549	    -25.71540961	     26.18866270	     76.03861562	     78.84933781	     75.26831278	    -22.94961808	     34.76280990	     72.66839604	     68.89179038
      1.05000000	    -19.46049604	      1.29645503	     -1.62778154	     -0.61810171	      1.17799417	     -0.04808737	     20.90759834	     -1.64127278	     -1.37483726	     45.18340315	      0.78859915	     20.11373940	      1.44572744	     -7.49999987	     28.32845239	      0.21259323	      5.26536206	     58.45541763	      1.02023950	      9.68287818	    -10.92506636	     -7.49999987	     -4.82120407	     -1.46735565	     -0.59326793	     63.94663578	    -25.85428607	     26.88716475	     76.01167577	     79.18297428	     76.00790517	    -23.47451669	     35.17267769	     72.93671349	     68.63522747
      1.05416670	    -19.02299946	      1.33392342	     -1.29980597	     -0.61371385	      1.18371199	     -0.04776525	     19.57389659	     -1.98322329	     -1.88793913	     43.67627070	      0.76229473	     18.53650626	      1.87038857	     -7.49999987	     28.14183901	      0.04825939	      4.62063753	     58.60974978	      1.02293311	      7.04396277	    -10.78316144	     -7.49999987	     -5.19456536	     -1.43383187	     -0.94284681	     64.95459106	    -26.07884920	     27.54848312	     76.02914581	     79.56785411	     77.21034422	    -23.92552257	     35.60301762	     72.72698681	     68.30567111
      1.05833330	    -18.73756208	      1.49456927	     -0.91402473	     -0.60457309	      1.18664475	     -0.04726121	     18.25993703	     -2.36757779	     -2.42676989	     42.30686738	      0.73839413	     17.02147018	      2.52015018	     -7.49999987	     27.94621129	      0.00740469	      4.10901838	     58.85785241	      1.02726332	      4.95569397	    -10.40127421	     -7.49999987	     -5.15708720	     -1.54339303	     -1.27285825	     65.42325652	    -26.31876459	     27.75787320	     76.43856889	     79.74663406	     77.89709403	    -24.41831372	     35.78580967	     72.87680317	     68.13131322
